<svg xmlns="http://www.w3.org/2000/svg" version="1.1" xmlns:xlink="http://www.w3.org/1999/xlink" xmlns:svgjs="http://svgjs.com/svgjs" width="512" height="512" x="0" y="0" viewBox="0 0 500 500" style="enable-background:new 0 0 512 512" xml:space="preserve" class=""><g><g xmlns="http://www.w3.org/2000/svg" id="Layer_2" data-name="Layer 2"><g id="Layer_1-2" data-name="Layer 1"><g id="_88.Saudi_Arabia" data-name="88.Saudi Arabia"><g id="Shape_01" data-name="Shape 01"><rect fill="#006C35" height="500" rx="35.39" width="500" data-original="#006c35" class=""></rect></g><path id="Symbol" d="m202.7 125.42a3.69 3.69 0 0 0 -1.7.66c-1.74 1.16-5.18 4.75-5.29 8.89-.1 2.33-.54 2.32 1 3.8 1.11 1.59 2.21 1.44 4.43.27a4.69 4.69 0 0 0 2.14-3.12c.53-2.65-2.78 1.25-3.21-1.7-.74-2.73 1.38-3.86 3.39-6.51.05-1.25.07-2.26-.74-2.29zm32.41.18c-.62.08-1.38.88-2.44 2.8-.75 2-4 5-1.66 11.3 1.92 4 2.72 10.41 1.84 17.6a33.51 33.51 0 0 1 -3.39 4.79c-2.46 2.64-5.12 2-7.16 1-1.91-1.29-3.42-1.95-4.29-6 .16-6.51.54-17.18-.65-19.45-1.76-3.5-4.65-2.24-5.89-1.19-5.94 5.44-8.88 14.62-10.67 21.92-1.65 5.32-3.41 3.78-4.64 1.64-3-2.82-3.22-24.82-6.84-21.21-5.81 16.6 3.33 34.78 9.66 33 4.57 1.89 7.47-6.8 9.34-16.32 1.28-2.68 2.26-3 2.91-1.61-.17 12.66.91 15.49 4.17 19.33 7.26 5.6 13.26.71 13.73.24s5.65-5.65 5.65-5.65c1.26-1.33 2.93-1.41 4.7-.24 1.73 1.57 1.51 4.27 5.21 6.15 3.11 1.25 9.76.31 11.3-2.37 2.07-3.56 2.57-4.78 3.54-6.13 1.48-2 4-1.1 4-.48-.24 1.1-1.72 2.19-.71 4.17 1.76 1.32 2.17.47 3.21.18 3.68-1.77 6.45-9.76 6.45-9.76.16-3-1.53-2.75-2.62-2.14-1.41.87-1.5 1.16-2.91 2-1.8.27-5.29 1.46-7-1.22-1.76-3.21-1.77-7.69-3.12-10.94 0-.24-2.36-5.1-.18-5.41 1.1.2 3.46.81 3.84-1.16 1.15-1.93-2.49-7.39-5-10.14-2.15-2.36-5.12-2.65-8-.24-2 1.85-1.71 3.93-2.11 5.89a9.24 9.24 0 0 0 1.87 8c2 4 5.67 9.05 4.46 16.23 0 0-2.12 3.42-5.85 3-1.56-.34-4.1-1-5.45-11-1-7.53.26-18.1-2.94-23-.72-1.87-1.34-3.68-2.38-3.54zm-10.26.8c-1 .08-2 1.21-2.91 3.39-.75 1.66-1.67 10.32-1.52 10.32-.6 2.58 2.7 3.67 4.2.36a31.73 31.73 0 0 0 2.4-11.24c-.35-2-1.2-2.91-2.17-2.83zm37.89.68c-1 .09-1.79.68-2.08 2.15a22.47 22.47 0 0 0 .38 8.2c.45 1.92 3.24 5.13 4.61 7 6.56 8.82 12.88 17.68 19 26.85 1 6.81 1.66 13.47 2.12 20.1a407 407 0 0 1 .38 48c2.73.11 7.09-4.4 8.63-11 1-9.14-.36-27.77-.45-33.16-.06-2.24-.2-4.91-.36-7.7 7.1 11.59 14 23.87 20.73 37.35 2.46-1.17 1.92-15 .48-17-5.41-11.64-12.88-23.12-15.26-27.54-.86-1.59-3.79-6-7.26-11.18-.63-7.32-1.33-13.53-1.78-15.4-1.11-7.75 3.18.87 2.59-3.63-1.4-7.73-5.67-13-10.71-20.07-1.62-2.31-1.59-2.78-4.1.56a14.78 14.78 0 0 0 -1 8.89c-.66-1-1.48-2.09-2.65-3.51-4.35-3.73-4.62-3.94-8.24-7-1.14-.81-3.31-2.06-5-1.91zm112.26 1.16c-.48-.07-1 .17-1.6 1a6.75 6.75 0 0 0 -2.32 5.12c.27 4.08 1 8.26 1.28 12.34.09.55.2 1.09.29 1.64a13.63 13.63 0 0 0 -1-1.22c-7.95-8.36 3.66-1.37-1.51-7.82-4.38-4.81-5.66-6.33-9.4-9.22-1.88-1.22-3-3.53-3.63.41a79.3 79.3 0 0 0 -.27 10.41c0 1.63 1.67 4.69 3.13 6.49 5.3 6.52 10.72 13.45 16.17 20.69 1.15 14.77 1.46 28.3 2.62 43.09-.16 6.32-2.11 14.73-4 15.52 0 0-2.81 1.62-4.69-.18-1.37-.55-6.84-9.13-6.84-9.13-2.8-2.56-4.67-1.83-6.66 0-5.5 5.31-8 15.25-11.72 22.1-1 1.53-3.67 2.83-6.69-.12-7.66-10.46-3.18-25.36-4.13-21.53-6.83 7.69-3.8 20.43-2.26 23.17 2.25 4.49 4.06 7.38 8.44 9.6 4 2.93 7.09 1.1 8.8-.95 4-4.16 4.07-14.79 6-16.89 1.32-3.86 4.63-3.2 6.25-1.49a15.37 15.37 0 0 0 5.71 4.94c3.74 3.3 8.2 3.9 12.6.89 3-1.69 5-3.88 6.72-8.21 1.89-5.05 1-31.53.54-46.27 2.83 4 5.61 8.05 8.39 12.16a302.89 302.89 0 0 1 1.36 37.89c-.28 2.43 8.48-7.25 8.42-11.84 0-4 0-7.64 0-11 4.25 6.79 8.36 13.68 12.25 20.67 2.41-1.28 1.58-14.92.06-16.8-4.07-6.83-9.29-14.22-13.32-19.93-.8-7.21-1.89-15.71-2.38-18.32-.77-4.06-1.54-10.16-2.71-15-.32-1.88-1.28-7.9-1-8.48.48-1.34 2.27.05 3.15-1.51 1.33-1.45-4.58-16.75-7.58-21.12-1.08-2-3-1.28-5.44 1.91-2.24 2.09-1.42 6.87-.57 11.41 2.22 11.59 4.2 23.39 5.77 35.15-2.9-4.31-6.44-9.53-9.93-14.57-.09-.48-.45-2.26-.45-2.29 0-.2-.48-9.47-.89-11.68-.07-.9-.28-1.16.66-1a5.38 5.38 0 0 0 1.75 1.16c1 .18 1.89-1.52 1.28-3.1l-9.34-17.24a2.59 2.59 0 0 0 -1.28-.84zm-289.78.3c-1.72 0-3.63 1-2.88 3.09-.44 1.13 3.37 5 4 7.05.6 1.5-.59 6.31.66 6.75s2.72-3.33 3.33-6.87c.33-1.94.08-8.57-4.44-9.93a4.05 4.05 0 0 0 -.71-.09zm330.11 0c-.39 0-.87.67-1.6 2.23-1.77 2.89-2.38 8.07-1.67 12.64 4.25 28.74 7.41 56.57 8.06 82a26.45 26.45 0 0 1 -1.61 6.75c-2.51 3.22-5.27 7.25-7.88 9.19s-8.15 3.79-10 5.23c-5.75 3.33-5.78 7.15-1.13 7.29 8-.93 17.5-1.59 24-11.45 1.75-2.76 3.8-10.25 3.89-14.84.61-26.88-.34-53.16-4.37-72.59-.26-1.89-1.09-6.24-.77-6.8.52-1.34 3.14.13 4.07-1.4 1.37-1.4-6.78-11.84-9.63-16.3-.57-1.12-.92-2-1.43-2zm-84 .45c-.34.05-.82.56-1.73 1.75-2.24 7.32-3 13.3-2.17 17.84 5.75 30 11.64 57.35 10.71 85.91 2.72 0 5.87-6.24 7.22-12.43.74-8.53-.49-13.72-.71-18.73s-5.68-45.69-6.78-49.49c-1.34-7.17 5.3-.94 4.58-5.11-2.3-5.26-8-12.92-9.82-17.49-.67-1.22-.75-2.35-1.3-2.26zm-204.62.56a2.15 2.15 0 0 0 -1.64 1.67c-.15.62.28 1.67-.29 2-.33.33-1.57.11-1.52-1.64a3 3 0 0 0 -.65-1.48 1.28 1.28 0 0 0 -.87-.21c-.54 0-.53.16-.83.62a5.26 5.26 0 0 0 -.3 1.46c-.07.62-.32.83-.78.92s-.39.06-.8-.21c-.25-.27-.54-.37-.54-.83a5 5 0 0 0 -.26-1.55 1.69 1.69 0 0 0 -1-.53c-2.14 0-2.3 2.46-2.18 3.39-.16.17-.23 4.53 2.68 5.74 3.92 1.86 11.26 1.07 10.94-5.24 0-.56-.12-2.43-.17-2.94a1.69 1.69 0 0 0 -1.85-1.16zm52.51.06a8.8 8.8 0 0 0 -3.56 1c-2.6 2.49-3.21 6.47-1.16 9 2 .94 4 2.94 2.64 4-5.62 6-20.25 16-21 17.87a.11.11 0 0 0 0 .06v.09.06s0 0 0 0c.74.5 9.9.49 10.91 0 3.15-1.15 18.08-18.22 18.08-18.22-.77-.67-1.49-1.15-2.26-1.82s-.75-1.42 0-2.14c3.7-2.15 2.53-6.89.59-9a9.57 9.57 0 0 0 -4.46-.89zm137.27.06c-.39 0-.87.64-1.61 2.2-1.76 2.89-3 7.92-2.82 12.64 3.82 26.46 5 49.63 7.49 76.09.21 2.56-.17 6.28-1.87 7.77-6.3 6.57-15.37 14.67-25.25 18.4-1.06 1.2 2.64 6.28 7.44 6.28 8-.93 15.05-5.43 21.59-17.28 1.74-2.76 4.81-8.68 4.9-13.26.61-26.88-1.35-47.78-5.38-67.21a11.07 11.07 0 0 1 .24-4.7c.52-.62 2.28 0 3.21-1.51 1.37-1.4-3.66-13-6.51-17.46-.57-1.12-.93-2-1.43-2zm-212.65.81a3.54 3.54 0 0 0 -2.65 2.23 77 77 0 0 0 .27 12.4c1.93 6.86 2.54 12.89 3.48 19.92.26 9.41-5.43 4.07-5.17-.59 1.31-6.06 1-15.6-.21-18-.93-2.42-2-3-4.25-2.62-1.79-.11-6.41 4.93-7.71 13.26a79.24 79.24 0 0 0 -1.54 8.09c-.63 4.31-3.49 7.36-5.47-.59-1.72-5.78-2.78-20-5.65-16.69-.83 11.12-1.81 30.68 7.64 32.69 11.42 1.09 5.11-19.32 9.25-23 .78-1.83 2.23-1.86 2.35.44v17.34c-.11 5.64 3.6 7.31 6.48 8.48 3-.23 5-.15 6.15 2.76q.7 15 1.43 30s6.93 2 7.26-16.87c.33-11.06-2.21-20.35-.72-22.51.06-2.11 2.77-2.22 4.64-1.19 3 2.11 4.31 4.7 9 3.66 7.06-1.94 11.32-5.37 11.42-10.79-.41-5.15-1-10.31-3.24-15.46.31-.94-1.35-3.38-1-4.32 1.27 2 3.19 1.83 3.63 0-1.2-4-3.07-7.75-6.1-9.39-2.5-2.21-6.15-1.74-7.49 2.85-.62 5.29 1.92 11.56 5.77 16.68.82 2 2 5.33 1.45 8.33-2 1.17-4.08.68-5.79-1.13 0 0-5.62-4.21-5.62-5.14 1.49-9.55.32-10.65-.51-13.3-.58-3.66-2.31-4.81-3.72-7.31-1.4-1.49-3.31-1.49-4.22 0-2.48 4.3-1.32 13.55.48 17.69 1.29 3.81 3.28 6.19 2.35 6.19-.78 2.15-2.38 1.65-3.54-.84-1.66-5.13-2-12.78-2-16.23-.49-4.28-1-13.41-3.86-15.73a2.66 2.66 0 0 0 -2.5-1.28zm40.12.06c-.57.07-1.2.39-1.94.56-2.43.78-4.7 2.87-4 7 2.87 17.45 4.74 30.76 7.61 48.2.44 2-1.27 4.74-3.48 4.46-3.75-2.54-4.68-7.68-11.09-7.46-4.64.06-9.93 5.1-10.59 10-.77 3.86-1 8.05 0 11.42 3.26 3.92 7.17 3.5 10.59 2.62 2.81-1.16 5.13-3.93 6.13-3.27.61 1.07-.06 10.14-13.27 17.15-8.11 3.65-14.57 4.52-18-2.11-2.15-4.14.16-19.91-5.14-16.26-15.68 40.41 36.73 46 42.58 1.66.38-1.25 1.53-2.51 2.35-2.2.36.15.69.64.8 1.55-1.22 40.14-40.51 42.93-47.23 30.29-1.65-3-2.15-9.61-2.32-13.59-.3-2.4-.9-3.79-1.6-4.34-1.6-1.2-3.74 1.92-4.2 7.34-.66 4.37-.47 5.56-.47 9.76 2.09 31.74 52.7 18.1 60.93-8.12 4.07-13.56-.09-23.78 1.28-25h.06a.11.11 0 0 0 .06 0h.18c5 5.41 12.08.69 13.62-1.19a2.26 2.26 0 0 1 3.48-.32c3.92 2.81 10.79 1.49 12.22-3.48a110.47 110.47 0 0 0 1.7-15.05c-2.56.79-4.62 1.39-5.44 2.26a1.44 1.44 0 0 0 -.39.71c-.22 1.44-.43 2.88-.65 4.32a1.52 1.52 0 0 1 -.12.32 1.38 1.38 0 0 1 -.48.45c-.9.49-2.48.21-2.56-1.1-1.21-5.52-6.21-6.24-9.24 2.32-2 1.65-5.77 2-6.16-.51.5-5.74-1.82-6.51-6.45-3.8-1.49-11.38-3-22.23-4.46-33.6 1.93-.06 3.7 1.34 5.47-.87-1.91-5.94-6-18-8.24-19.18h-.06a2 2 0 0 0 -.33-.32l-.14-.12-.15-.09-.3-.12a1.49 1.49 0 0 0 -.63-.06zm156.38.09c-2-.06-4.23 1.2-3.36 3.71-.51 1.37 4.31 6 5.08 8.57 1.4 3.91-1.06 7.64.39 8.18s3.2-4 3.89-8.33c.81-3.47-1.66-10.58-5.17-12a3.84 3.84 0 0 0 -.83-.09zm-121.84 4.37a2.94 2.94 0 0 1 2.55 1.93c.58 1.27.29 2.48-.65 2.71s-2.16-.61-2.74-1.88-.28-2.5.66-2.73zm226 5.86a3 3 0 0 0 -3 4c-.46 1.49 3.9 6.52 4.61 9.28.64 2-1 8.28.36 8.86s2.93-4.36 3.57-9c.35-2.54-1.53-11.47-4.73-13a3.34 3.34 0 0 0 -.77-.12zm-125 3.09c.17.74.34 1.5.45 2.26.38 1.65.7 3.28 1 4.91-1.44-2-2.64-3.6-3.15-4.17-3.27-3.88.07-2.55 1.66-3zm28.79 14.15a2.21 2.21 0 0 0 -1.64 1.7c-.15.63.31 1.64-.26 2-.33.33-1.6.14-1.55-1.6a3.06 3.06 0 0 0 -.65-1.52 1.34 1.34 0 0 0 -.87-.21c-.54 0-.53.17-.83.63a5.19 5.19 0 0 0 -.3 1.45c-.06.62-.28.83-.74.92s-.42.06-.83-.2c-.25-.27-.54-.38-.54-.84a4.66 4.66 0 0 0 -.27-1.54 1.58 1.58 0 0 0 -1-.51c-2.13 0-2.26 2.44-2.14 3.36-.16.18-.27 4.56 2.65 5.77 3.91 1.87 11.28 1.05 11-5.26 0-.56-.15-2.43-.21-2.95a1.68 1.68 0 0 0 -1.84-1.16zm-131.39 1.26a3.17 3.17 0 0 0 -1.85.57c-3.46 1.87-4.8 7.42-2.64 10.67 2 2.87 5.19 1.82 5.62 1.82 3.39.42 5.41-6.37 5.41-6.37s.1-1.91-3.92 1.7c-1.7.32-1.93-.3-2.35-1.25a8.39 8.39 0 0 1 .53-5.32c.38-1.06 0-1.74-.8-1.82zm185.79.86a4.4 4.4 0 0 0 -4.49 3.78c0 1.55.7 2.4.57 3.81-.2.8-1 1.33-3 .38.31-.28-1.28-2.52-1.28-2.52-1.53-.94-3.59.05-4.93.92a7.53 7.53 0 0 0 -.45 6c2.21 4.08 9.8 11.05 13.41 11.12.07-3.69.43-8.58.63-11.63.08-1.15.35-2.42 1.46-2.71s3 1.11 3-.09c-.2-2.34-.67-5.8-2-7.43a3.77 3.77 0 0 0 -2.95-1.61zm-153.79 12.78-.15.09-.09.06a18.6 18.6 0 0 1 -1.84 1.67c-1.7 1.93-2 3.28-1.9 7.16.09.41 3.23 9.13 5.88 15.26 1.79 6.37 3.45 13.66 2.23 20.54-4.19 9.11-12.62 17.28-20.75 21.71-4.15 1.33-7.73.88-8.69 0a5.38 5.38 0 0 1 -2.29-4.93c6.87-4.78 14.71-8.65 20.85-21.56 1.81-4.93 2.37-7.9.56-15.52a14.73 14.73 0 0 0 -3.5-7.2c1.16-.56 4.2 1.67 4.66.27-.71-3.64-3.18-8.53-6-11-2.45-2.23-5.11-2.48-7.35-.45-2.52 1.4-3.06 6.44-1.84 10.85 1.35 3.32 5 3.91 7.58 10.59.06.42.89 5-.42 6.84-1.06 3.3-14.67 14-15.64 14.69l-.09.06h-.11v-.06c0-.27 0-1 0-2.05-.09-2 .74-6.57.68-7.35s0 0 0 0c-4.5 2.91-6 11.82-6.81 14.45-11.39 7.88-24.33 13.74-31.79 21.71-3.88 6.06 26.75-7 30.31-8.53a.34.34 0 0 1 .08.09c.68.74.74 3.34 2.77 5.68 3.18 4.31 9.95 7 16.53 5.32 11-4 17.4-11.52 23.88-19.86.93-1.35 2.38-2.41 3.72-1.37 4.45 10 17.28 17 33.87 17.78 3.84-4.67 2-7 .44-7.94-.47-.32-8.25-3.35-9.45-6.36-.76-2.81 1.09-5.3 4.79-7.17 10.65-1.29 21.12-2.72 31.25-6 .1-3.4 2.11-8.49 3.45-10.7a4.92 4.92 0 0 1 1.75-1.9v-.06a.84.84 0 0 0 0-.3l-1.72-1-34-.15a3.32 3.32 0 0 1 -.92-.48.17.17 0 0 1 -.06-.06 0 0 0 0 1 0 0v-.24-.06a2.63 2.63 0 0 1 1.07-.62c8.12-1.11 22.53-3.47 23.49-17.34-.15-7.22-3.09-12-12-13.26-6.51.5-11.16 6.8-10.41 13.73-.31 1.87.63 5.54-1.28 5.95-12.49 1.14-26.13 9-26.58 14.57h-.06-.06-.09-.18-.12c-.81-.22-1.86-1.57-1.69-3.45a67.06 67.06 0 0 0 -8.57-29.08c-1.76-1.76-2.53-2.47-3-2.56h-.24zm32.53 5.12a2.13 2.13 0 0 0 -1.63 1.66c-.16.63.3 1.68-.27 2-.33.33-1.6.14-1.55-1.6a3.06 3.06 0 0 0 -.65-1.52 1.23 1.23 0 0 0 -.83-.21c-.55 0-.57.17-.87.63a5.74 5.74 0 0 0 -.29 1.45c-.07.63-.29.84-.75.93s-.39 0-.8-.21c-.25-.27-.57-.38-.57-.83a5 5 0 0 0 -.23-1.55 1.69 1.69 0 0 0 -1-.51c-2.14 0-2.27 2.44-2.15 3.36-.16.18-.27 4.56 2.65 5.77 3.91 1.87 13.24.77 11-5.26 0-.56-.15-2.43-.2-2.94a1.68 1.68 0 0 0 -1.85-1.16zm131.29 5.38a.64.64 0 0 0 -.33 0s-18.13 12.9-18.58 13.35c-1.8 1.6-.9 7.22 0 6.57 1.3.5 19.56-11.87 19.21-13.32.79.05 1.18-6.37-.3-6.63zm-114.15 1.91a4.65 4.65 0 0 1 2.65.71c1.35.79 2.18 2 2.08 2.83a.27.27 0 0 0 0 .09l-.06.09s0 .07 0 .09v.06.06a1.12 1.12 0 0 1 -.18.2c-.65.61-2.15.53-3.57-.29s-2.17-2-2.08-2.83c0 0 0-.06 0-.09a1 1 0 0 1 .12-.29l.06-.12a0 0 0 0 1 0 0l.15-.15a1.71 1.71 0 0 1 .86-.33zm-158.83 3.31c-9.39.17-23.16 12.32-23.52 19.06 9.92-4.76 19.66-9.34 29.74-14.27-1.63-2.43-.1-4.62-6.22-4.79zm30.45 4.22a2.56 2.56 0 0 1 2.41 1.76 3 3 0 0 1 -.53 3s0 0 0 0a.33.33 0 0 1 0 .06c-.4.51-1.78.3-2.77.3a2.69 2.69 0 0 1 -2.5-1.22c-.34-1.08.7-2.14 1.16-2.94a1.17 1.17 0 0 1 .21-.24 3.19 3.19 0 0 1 1.64-.72zm239 3.74a3.16 3.16 0 0 0 -2.53 4.32c-.46 1.48 2.27 6.67 3 9.42.63 2-.82 7.51.5 8.09s4.43-3.29 4.31-8.24c.36-2.54-.9-11.91-4.1-13.5a3.22 3.22 0 0 0 -1.16-.09zm-203 9.16c-1.48.11-2.79.9-2.2 3-.09 1.51 4.17 3.34 4.43 6.84.61 1.44-.91 6.05.36 6.48s2.78-3.19 3.39-6.6c.33-1.87-1.46-8.41-4.52-9.58a5.48 5.48 0 0 0 -1.46-.12zm60.75 8.3h.39c3.79 1 9.37 1.14 14.21 1.64 3.95.25 5.9 3.34 2.2 4.63s-7.15 2.23-7.16 7.5c.48 2.61.38 4 0 4.61l-.12.15h-.06a.61.61 0 0 1 -.18.09 1 1 0 0 1 -.18 0c-.86.13-2.12-.7-3.06-1.19-2.25-1.61-8.56-5.52-9.46-13.91a3.54 3.54 0 0 1 3.57-3.69zm-148.37 6.45c-.23 0-.71.72-1.33 1.52-5.59 8.91-6.09 22.2-3 26.17a6.53 6.53 0 0 0 6.34 2.11c3.51-1.52 5.05-8.64 4.22-11.24-1.17-1.84-2.1-2.13-3.27-.57-2.47 5-3.5 1.59-3.72-1.22a64.16 64.16 0 0 1 .72-14.09c.3-2 .29-2.68 0-2.68zm190.43 11.7a2.54 2.54 0 0 0 -1.31.27c-.09 0-4 2.64-5.26 4.49-.77.58-.68 1.09-.45 2.11.6 1.38 1.66.94 2.86.29 1.59-.21 2.36.83 2.23 2.74a3.5 3.5 0 0 0 .33 3.42 2.65 2.65 0 0 0 3.33.42c3.79-1.45 6.16-2.86 11.47-4 1.4 0 1.32-3.76-.89-3.89-2.88.14-5.53.29-8.41 2.55-1.78.41-2.08-.67-2.47-1.63-.45-2.4 1-4.09.71-5.89a4.09 4.09 0 0 0 -2.14-.86zm122 4.55c-.7 0-1.45.12-2.52.21s-1.57.75-1.79 2.17c.09 2.14 1.4 2 2.74 2.88.77 1 1.28 1.88-.06 3.51-1.27 1.16-2.18 1.81-3.45 3-.6 1-1 2.6.86 3.1 3.39.95 11.24-4.15 11.24-4.26a2.5 2.5 0 0 0 .75-2.76c-.75-.85-2.42-.34-3.54-.48-.54 0-2.3-.26-1.46-1.81a10.78 10.78 0 0 0 1.43-2.74c.53-1.16.06-1.95-1.85-2.59a11 11 0 0 0 -2.35-.2zm-50.95 103.16c-5.64 1.45-5.47 7.3-1.85 9.87-59.56 0-151-1-170.56-1-11 0-45.67-1.31-46.34-1.31 7.45 10.88 18.22 13.1 32.33 13.32 26.45 0 149-.32 183.92-.32-2.48 4.4.22 11.48 2.17 12.78l.15.09a1.17 1.17 0 0 0 .24.09s.06 0 .08 0c2.31.55 3.33-1.13 4.11-2.35 3.74.33 24.83.64 26.76 0 1.31 1.92 2.6 3.74 5.09 3.42 4.34-.93 7.77-1.4 7.88-10.23 0 0-.45-15-10.32-14.09-2.34.35-8.89 1-8.89 1-7.59-.9-13.15-1-21.68-1.31.79-1 2.17-5.05.47-6.51a2.72 2.72 0 0 0 -2-.51h-.09a.47.47 0 0 1 -.09 0 .69.69 0 0 1 -.14-.15l-.06-.06c-.44-.62-.67-2.16-1-2.55h-.05-.06zm4 21.5c8.69.42 16.85.08 25.55.5 1.37 1.17.68 3.86-.21 4.34l-.15.06h-.24l-7.28-.2a2.65 2.65 0 0 0 -.06-.42c-.67-2-5.52-1.85-6.67-.3l-.05.09a.67.67 0 0 0 -.06.12.94.94 0 0 0 -.06.15.76.76 0 0 0 0 .21.91.91 0 0 0 0 .23c-3.82.46-7.25-.12-11.07-.26-1.11-1.4-1-3.92.33-4.52z" fill="#FFFFFF" data-original="#ffffff"></path></g></g></g></g></svg>